{
  "accessors": [
    {
      "bufferView": 2,
      "componentType": 5126,
      "count": 8178,
      "max": [
        0.5948939919471741,
        0.26772698760032654,
        1.0028599500656128
      ],
      "min": [
        -0.5950909852981567,
        -0.2612220048904419,
        -1.0013099908828735
      ],
      "type": "VEC3"
    },
    {
      "bufferView": 2,
      "byteOffset": 98136,
      "componentType": 5126,
      "count": 8178,
      "max": [
        0.9998078942298889,
        0.9966100454330444,
        0.9948703646659851
      ],
      "min": [
        -0.9999910593032837,
        -0.999884843826294,
        -0.9991945028305054
      ],
      "type": "VEC3"
    },
    {
      "bufferView": 3,
      "componentType": 5126,
      "count": 8178,
      "max": [
        0.9999404549598694,
        0.9983387589454651,
        0.9999215006828308,
        -1.0
      ],
      "min": [
        -0.9999855160713196,
        -0.9984054565429688,
        -0.9999244809150696,
        -1.0
      ],
      "type": "VEC4"
    },
    {
      "bufferView": 1,
      "componentType": 5126,
      "count": 8178,
      "max": [
        0.9994519948959351,
        0.9999750256538391
      ],
      "min": [
        0.00016399999731220305,
        1.5020370483398438e-05
      ],
      "type": "VEC2"
    },
    {
      "bufferView": 1,
      "byteOffset": 65424,
      "componentType": 5126,
      "count": 8178,
      "max": [
        0.9994519948959351,
        0.9999750256538391
      ],
      "min": [
        0.00016399999731220305,
        1.5020370483398438e-05
      ],
      "type": "VEC2"
    },
    {
      "bufferView": 1,
      "byteOffset": 130848,
      "componentType": 5126,
      "count": 8178,
      "max": [
        0.9994519948959351,
        0.9999750256538391
      ],
      "min": [
        0.00016399999731220305,
        1.5020370483398438e-05
      ],
      "type": "VEC2"
    },
    {
      "bufferView": 1,
      "byteOffset": 196272,
      "componentType": 5126,
      "count": 8178,
      "max": [
        0.9994519948959351,
        0.9999750256538391
      ],
      "min": [
        0.00016399999731220305,
        1.5020370483398438e-05
      ],
      "type": "VEC2"
    },
    {
      "bufferView": 0,
      "componentType": 5125,
      "count": 30000,
      "type": "SCALAR"
    }
  ],
  "asset": {
    "extras": {
      "author": "miguelgandra (https://sketchfab.com/miguelgandra)",
      "license": "CC-BY-4.0 (http://creativecommons.org/licenses/by/4.0/)",
      "source": "https://sketchfab.com/3d-models/blue-shark-cd2ac655531b4bd5b57cbabd81a5a5ba",
      "title": "Blue shark"
    },
    "generator": "Sketchfab-16.75.0",
    "version": "2.0"
  },
  "bufferViews": [
    {
      "buffer": 0,
      "byteLength": 120000,
      "name": "floatBufferViews",
      "target": 34963
    },
    {
      "buffer": 0,
      "byteLength": 261696,
      "byteOffset": 120000,
      "byteStride": 8,
      "name": "floatBufferViews",
      "target": 34962
    },
    {
      "buffer": 0,
      "byteLength": 196272,
      "byteOffset": 381696,
      "byteStride": 12,
      "name": "floatBufferViews",
      "target": 34962
    },
    {
      "buffer": 0,
      "byteLength": 130848,
      "byteOffset": 577968,
      "byteStride": 16,
      "name": "floatBufferViews",
      "target": 34962
    }
  ],
  "buffers": [
    {
      "byteLength": 708816,
      "uri": "scene.bin"
    }
  ],
  "images": [
    {
      "uri": "textures/material_0_baseColor.jpeg"
    },
    {
      "uri": "textures/material_0_metallicRoughness.png"
    },
    {
      "uri": "textures/material_0_normal.jpeg"
    }
  ],
  "materials": [
    {
      "doubleSided": true,
      "name": "material_0",
      "normalTexture": {
        "index": 2
      },
      "pbrMetallicRoughness": {
        "baseColorTexture": {
          "index": 0
        },
        "metallicRoughnessTexture": {
          "index": 1
        }
      }
    }
  ],
  "meshes": [
    {
      "name": "Object_0",
      "primitives": [
        {
          "attributes": {
            "NORMAL": 1,
            "POSITION": 0,
            "TANGENT": 2,
            "TEXCOORD_0": 3,
            "TEXCOORD_1": 4,
            "TEXCOORD_2": 5,
            "TEXCOORD_3": 6
          },
          "indices": 7,
          "material": 0,
          "mode": 4
        }
      ]
    }
  ],
  "nodes": [
    {
      "children": [
        1
      ],
      "matrix": [
        1.0,
        0.0,
        0.0,
        0.0,
        0.0,
        2.220446049250313e-16,
        -1.0,
        0.0,
        0.0,
        1.0,
        2.220446049250313e-16,
        0.0,
        0.0,
        0.0,
        0.0,
        1.0
      ],
      "name": "Sketchfab_model"
    },
    {
      "children": [
        2
      ],
      "name": "root"
    },
    {
      "children": [
        3
      ],
      "matrix": [
        1.0,
        0.0,
        0.0,
        0.0,
        0.0,
        2.220446049250313e-16,
        1.0,
        0.0,
        0.0,
        -1.0,
        2.220446049250313e-16,
        0.0,
        0.0,
        0.0,
        0.0,
        1.0
      ],
      "name": "GLTF_SceneRootNode"
    },
    {
      "children": [
        4
      ],
      "name": "_0"
    },
    {
      "mesh": 0,
      "name": "Object_4"
    }
  ],
  "samplers": [
    {
      "magFilter": 9729,
      "minFilter": 9987,
      "wrapS": 10497,
      "wrapT": 10497
    }
  ],
  "scene": 0,
  "scenes": [
    {
      "name": "Sketchfab_Scene",
      "nodes": [
        0
      ]
    }
  ],
  "textures": [
    {
      "sampler": 0,
      "source": 0
    },
    {
      "sampler": 0,
      "source": 1
    },
    {
      "sampler": 0,
      "source": 2
    }
  ]
}
